# Blender v2.77 (sub 0) OBJ File: ''
# www.blender.org
mtllib Updatedv3tunnel.mtl
o Cylinder_Cylinder.002
v 0.537346 -4.708529 -1.053138
v 0.537346 5.291471 -1.017389
v 0.732436 -4.708529 -1.033924
v 0.725462 5.291471 -0.998861
v 0.920029 -4.708529 -0.977018
v 0.906349 5.291471 -0.943990
v 1.092916 -4.708529 -0.884608
v 1.073055 5.291471 -0.854883
v 1.244453 -4.708529 -0.760245
v 1.219174 5.291471 -0.734966
v 1.368816 -4.708529 -0.608709
v 1.339091 5.291471 -0.588847
v 1.461226 -4.708529 -0.435822
v 1.428197 5.291471 -0.422141
v 1.518131 -4.708529 -0.248229
v 1.483068 5.291471 -0.241254
v 1.537346 -4.708529 -0.053138
v 1.501596 5.291471 -0.053138
v 1.518131 -4.708529 0.141952
v 1.483069 5.291471 0.134977
v 1.461226 -4.708529 0.329545
v 1.428197 5.291471 0.315864
v 1.368816 -4.708529 0.502432
v 1.339091 5.291471 0.482570
v 1.244453 -4.708529 0.653968
v 1.219174 5.291471 0.628690
v 1.092916 -4.708529 0.778331
v 1.073055 5.291471 0.748607
v 0.920029 -4.708529 0.870741
v 0.906348 5.291471 0.837713
v 0.732436 -4.708529 0.927647
v 0.725462 5.291471 0.892584
v 0.537346 -4.708529 0.946862
v 0.537346 5.291471 0.911112
v 0.342255 -4.708529 0.927647
v 0.349230 5.291471 0.892584
v 0.154662 -4.708529 0.870741
v 0.168343 5.291471 0.837713
v -0.018225 -4.708529 0.778331
v 0.001637 5.291471 0.748606
v -0.169761 -4.708529 0.653968
v -0.144482 5.291471 0.628689
v -0.294124 -4.708529 0.502431
v -0.264399 5.291471 0.482570
v -0.386534 -4.708529 0.329544
v -0.353505 5.291471 0.315864
v -0.443439 -4.708529 0.141951
v -0.408377 5.291471 0.134977
v -0.462654 -4.708529 -0.053139
v -0.426904 5.291471 -0.053139
v -0.443439 -4.708529 -0.248230
v -0.408376 5.291471 -0.241255
v -0.386533 -4.708529 -0.435823
v -0.353505 5.291471 -0.422142
v -0.294123 -4.708529 -0.608710
v -0.264398 5.291471 -0.588848
v -0.169760 -4.708529 -0.760246
v -0.144481 5.291471 -0.734967
v -0.018223 -4.708529 -0.884609
v 0.001638 5.291471 -0.854884
v 0.154664 -4.708529 -0.977018
v 0.168345 5.291471 -0.943990
v 0.342257 -4.708529 -1.033924
v 0.349232 5.291471 -0.998861
v 0.537346 5.291471 -0.824539
v 0.687839 5.291471 -0.809717
v 0.832548 5.291471 -0.765819
v 0.965913 5.291471 -0.694534
v 1.082808 5.291471 -0.598601
v 1.178742 5.291471 -0.481705
v 1.250027 5.291471 -0.348341
v 1.293924 5.291471 -0.203631
v 1.308746 5.291471 -0.053138
v 1.293924 5.291471 0.097354
v 1.250027 5.291471 0.242064
v 1.178742 5.291471 0.375429
v 1.082808 5.291471 0.492324
v 0.965913 5.291471 0.588257
v 0.832548 5.291471 0.659543
v 0.687839 5.291471 0.703440
v 0.537346 5.291471 0.718262
v 0.386853 5.291471 0.703440
v 0.242144 5.291471 0.659542
v 0.108779 5.291471 0.588257
v -0.008117 5.291471 0.492324
v -0.104050 5.291471 0.375428
v -0.175335 5.291471 0.242063
v -0.219232 5.291471 0.097354
v -0.234054 5.291471 -0.053139
v -0.219232 5.291471 -0.203632
v -0.175335 5.291471 -0.348341
v -0.104049 5.291471 -0.481706
v -0.008116 5.291471 -0.598602
v 0.108780 5.291471 -0.694535
v 0.242145 5.291471 -0.765820
v 0.386854 5.291471 -0.809717
v 0.537346 -4.728481 -0.824539
v 0.687839 -4.728481 -0.809717
v 0.832548 -4.728481 -0.765819
v 0.965913 -4.728481 -0.694534
v 1.082808 -4.728481 -0.598601
v 1.178742 -4.728481 -0.481705
v 1.250027 -4.728481 -0.348341
v 1.293924 -4.728481 -0.203631
v 1.308746 -4.728481 -0.053138
v 1.293924 -4.728481 0.097354
v 1.250027 -4.728481 0.242064
v 1.178742 -4.728481 0.375429
v 1.082808 -4.728481 0.492324
v 0.965913 -4.728481 0.588257
v 0.832548 -4.728481 0.659543
v 0.687839 -4.728481 0.703440
v 0.537346 -4.728481 0.718262
v 0.386853 -4.728481 0.703440
v 0.242144 -4.728481 0.659542
v 0.108779 -4.728481 0.588257
v -0.008117 -4.728481 0.492324
v -0.104050 -4.728481 0.375428
v -0.175335 -4.728481 0.242063
v -0.219232 -4.728481 0.097354
v -0.234054 -4.728481 -0.053139
v -0.219232 -4.728481 -0.203632
v -0.175335 -4.728481 -0.348341
v -0.104049 -4.728481 -0.481706
v -0.008116 -4.728481 -0.598602
v 0.108780 -4.728481 -0.694535
v 0.242145 -4.728481 -0.765820
v 0.386854 -4.728481 -0.809717
vn 0.0000 0.0036 -1.0000
vn 0.0000 0.6870 -0.7266
vn 0.1418 0.6870 -0.7127
vn 0.1951 0.0036 -0.9808
vn 0.2781 0.6870 -0.6713
vn 0.3827 0.0036 -0.9239
vn 0.4037 0.6870 -0.6042
vn 0.5556 0.0036 -0.8314
vn 0.5138 0.6870 -0.5138
vn 0.7071 0.0036 -0.7071
vn 0.6042 0.6870 -0.4037
vn 0.8314 0.0036 -0.5556
vn 0.6713 0.6870 -0.2781
vn 0.9239 0.0036 -0.3827
vn 0.7127 0.6870 -0.1418
vn 0.9808 0.0036 -0.1951
vn 0.7266 0.6870 0.0000
vn 1.0000 0.0036 0.0000
vn 0.7127 0.6870 0.1418
vn 0.9808 0.0036 0.1951
vn 0.6713 0.6870 0.2781
vn 0.9239 0.0036 0.3827
vn 0.6042 0.6870 0.4037
vn 0.8314 0.0036 0.5556
vn 0.5138 0.6870 0.5138
vn 0.7071 0.0036 0.7071
vn 0.4037 0.6870 0.6042
vn 0.5556 0.0036 0.8314
vn 0.2781 0.6870 0.6713
vn 0.3827 0.0036 0.9239
vn 0.1418 0.6870 0.7127
vn 0.1951 0.0036 0.9808
vn 0.0000 0.6870 0.7266
vn 0.0000 0.0036 1.0000
vn -0.1418 0.6870 0.7127
vn -0.1951 0.0036 0.9808
vn -0.2781 0.6870 0.6713
vn -0.3827 0.0036 0.9239
vn -0.4037 0.6870 0.6042
vn -0.5556 0.0036 0.8314
vn -0.5138 0.6870 0.5138
vn -0.7071 0.0036 0.7071
vn -0.6042 0.6870 0.4037
vn -0.8314 0.0036 0.5556
vn -0.6713 0.6870 0.2781
vn -0.9239 0.0036 0.3827
vn -0.7127 0.6870 0.1418
vn -0.9808 0.0036 0.1951
vn -0.7266 0.6870 0.0000
vn -1.0000 0.0036 0.0000
vn -0.7127 0.6870 -0.1418
vn -0.9808 0.0036 -0.1951
vn -0.6713 0.6870 -0.2781
vn -0.9239 0.0036 -0.3827
vn -0.6042 0.6870 -0.4037
vn -0.8314 0.0036 -0.5556
vn -0.5138 0.6870 -0.5138
vn -0.7071 0.0036 -0.7071
vn -0.4037 0.6870 -0.6042
vn -0.5556 0.0036 -0.8314
vn -0.2781 0.6870 -0.6713
vn -0.3827 0.0036 -0.9239
vn -0.1418 0.6870 -0.7127
vn -0.1951 0.0036 -0.9808
vn -0.5684 0.7298 0.3798
vn -0.6316 0.7298 0.2616
vn -0.2616 0.7298 -0.6316
vn -0.1333 0.7298 -0.6705
vn 0.6705 0.7298 -0.1334
vn 0.6836 0.7298 0.0000
vn -0.1333 0.7298 0.6705
vn -0.2616 0.7298 0.6316
vn -0.6316 0.7298 -0.2616
vn -0.5684 0.7298 -0.3798
vn 0.3798 0.7298 -0.5684
vn 0.4834 0.7298 -0.4834
vn 0.4834 0.7298 0.4834
vn 0.3798 0.7298 0.5684
vn -0.6705 0.7298 0.1333
vn 0.0000 0.7298 -0.6836
vn 0.6705 0.7298 0.1334
vn -0.3798 0.7298 0.5684
vn -0.4834 0.7298 -0.4834
vn 0.5684 0.7298 -0.3798
vn 0.2616 0.7298 0.6316
vn -0.6836 0.7298 0.0000
vn 0.1333 0.7298 -0.6705
vn 0.6316 0.7298 0.2616
vn -0.4834 0.7298 0.4834
vn -0.3798 0.7298 -0.5684
vn 0.6316 0.7298 -0.2616
vn 0.1333 0.7298 0.6705
vn -0.6705 0.7298 -0.1334
vn 0.2616 0.7298 -0.6316
vn 0.5684 0.7298 0.3798
vn 0.0000 0.7298 0.6836
vn -0.1951 0.0000 0.9808
vn -0.3827 0.0000 0.9239
vn 0.7071 0.0000 0.7071
vn 0.5556 0.0000 0.8314
vn -0.1951 0.0000 -0.9808
vn 0.0000 0.0000 -1.0000
vn -0.5556 0.0000 0.8314
vn 0.3827 0.0000 0.9239
vn 0.1951 0.0000 -0.9808
vn -0.7071 0.0000 0.7071
vn 0.1951 0.0000 0.9808
vn 0.3827 0.0000 -0.9239
vn -0.8314 0.0000 0.5556
vn 0.0000 0.0000 1.0000
vn 0.5556 0.0000 -0.8314
vn -0.9239 0.0000 0.3827
vn 0.7071 0.0000 -0.7071
vn -0.9808 0.0000 0.1951
vn 0.8314 0.0000 -0.5556
vn -1.0000 0.0000 0.0000
vn 0.9239 0.0000 -0.3827
vn -0.9808 0.0000 -0.1951
vn 0.9808 0.0000 -0.1951
vn -0.9239 0.0000 -0.3827
vn 1.0000 0.0000 0.0000
vn -0.8314 0.0000 -0.5556
vn 0.9808 0.0000 0.1951
vn -0.7071 0.0000 -0.7071
vn 0.9239 0.0000 0.3827
vn -0.5556 0.0000 -0.8314
vn 0.8314 0.0000 0.5556
vn -0.3827 0.0000 -0.9239
usemtl None
s 1
f 1//1 2//2 4//3 3//4
f 3//4 4//3 6//5 5//6
f 5//6 6//5 8//7 7//8
f 7//8 8//7 10//9 9//10
f 9//10 10//9 12//11 11//12
f 11//12 12//11 14//13 13//14
f 13//14 14//13 16//15 15//16
f 15//16 16//15 18//17 17//18
f 17//18 18//17 20//19 19//20
f 19//20 20//19 22//21 21//22
f 21//22 22//21 24//23 23//24
f 23//24 24//23 26//25 25//26
f 25//26 26//25 28//27 27//28
f 27//28 28//27 30//29 29//30
f 29//30 30//29 32//31 31//32
f 31//32 32//31 34//33 33//34
f 33//34 34//33 36//35 35//36
f 35//36 36//35 38//37 37//38
f 37//38 38//37 40//39 39//40
f 39//40 40//39 42//41 41//42
f 41//42 42//41 44//43 43//44
f 43//44 44//43 46//45 45//46
f 45//46 46//45 48//47 47//48
f 47//48 48//47 50//49 49//50
f 49//50 50//49 52//51 51//52
f 51//52 52//51 54//53 53//54
f 53//54 54//53 56//55 55//56
f 55//56 56//55 58//57 57//58
f 57//58 58//57 60//59 59//60
f 59//60 60//59 62//61 61//62
f 61//62 62//61 64//63 63//64
f 63//64 64//63 2//2 1//1
f 14//13 12//11 70//65 71//66
f 32//31 30//29 79//67 80//68
f 50//49 48//47 88//69 89//70
f 6//5 4//3 66//71 67//72
f 24//23 22//21 75//73 76//74
f 42//41 40//39 84//75 85//76
f 60//59 58//57 93//77 94//78
f 16//15 14//13 71//66 72//79
f 34//33 32//31 80//68 81//80
f 52//51 50//49 89//70 90//81
f 8//7 6//5 67//72 68//82
f 26//25 24//23 76//74 77//83
f 44//43 42//41 85//76 86//84
f 62//61 60//59 94//78 95//85
f 18//17 16//15 72//79 73//86
f 36//35 34//33 81//80 82//87
f 54//53 52//51 90//81 91//88
f 10//9 8//7 68//82 69//89
f 28//27 26//25 77//83 78//90
f 46//45 44//43 86//84 87//91
f 64//63 62//61 95//85 96//92
f 20//19 18//17 73//86 74//93
f 38//37 36//35 82//87 83//94
f 56//55 54//53 91//88 92//95
f 12//11 10//9 69//89 70//65
f 30//29 28//27 78//90 79//67
f 48//47 46//45 87//91 88//69
f 4//3 2//2 65//96 66//71
f 2//2 64//63 96//92 65//96
f 22//21 20//19 74//93 75//73
f 40//39 38//37 83//94 84//75
f 58//57 56//55 92//95 93//77
f 67//72 66//71 98//97 99//98
f 94//78 93//77 125//99 126//100
f 81//80 80//68 112//101 113//102
f 68//82 67//72 99//98 100//103
f 95//85 94//78 126//100 127//104
f 82//87 81//80 113//102 114//105
f 69//89 68//82 100//103 101//106
f 96//92 95//85 127//104 128//107
f 83//94 82//87 114//105 115//108
f 70//65 69//89 101//106 102//109
f 65//96 96//92 128//107 97//110
f 84//75 83//94 115//108 116//111
f 71//66 70//65 102//109 103//112
f 85//76 84//75 116//111 117//113
f 72//79 71//66 103//112 104//114
f 86//84 85//76 117//113 118//115
f 73//86 72//79 104//114 105//116
f 87//91 86//84 118//115 119//117
f 74//93 73//86 105//116 106//118
f 88//69 87//91 119//117 120//119
f 75//73 74//93 106//118 107//120
f 89//70 88//69 120//119 121//121
f 76//74 75//73 107//120 108//122
f 90//81 89//70 121//121 122//123
f 77//83 76//74 108//122 109//124
f 91//88 90//81 122//123 123//125
f 78//90 77//83 109//124 110//126
f 92//95 91//88 123//125 124//127
f 79//67 78//90 110//126 111//128
f 66//71 65//96 97//110 98//97
f 93//77 92//95 124//127 125//99
f 80//68 79//67 111//128 112//101
