# Blender v2.77 (sub 0) OBJ File: ''
# www.blender.org
mtllib Updatedtunnel.mtl
o Cylinder_Cylinder.002
v 0.537346 -4.708529 -1.053138
v 0.537346 5.291471 -1.053138
v 0.732436 -4.708529 -1.033924
v 0.732436 5.291471 -1.033924
v 0.920029 -4.708529 -0.977018
v 0.920029 5.291471 -0.977018
v 1.092916 -4.708529 -0.884608
v 1.092916 5.291471 -0.884608
v 1.244453 -4.708529 -0.760245
v 1.244453 5.291471 -0.760245
v 1.368816 -4.708529 -0.608709
v 1.368816 5.291471 -0.608709
v 1.461226 -4.708529 -0.435822
v 1.461226 5.291471 -0.435822
v 1.518131 -4.708529 -0.248229
v 1.518131 5.291471 -0.248229
v 1.537346 -4.708529 -0.053138
v 1.537346 5.291471 -0.053138
v 1.518131 -4.708529 0.141952
v 1.518131 5.291471 0.141952
v 1.461226 -4.708529 0.329545
v 1.461226 5.291471 0.329545
v 1.368816 -4.708529 0.502432
v 1.368816 5.291471 0.502432
v 1.244453 -4.708529 0.653968
v 1.244453 5.291471 0.653968
v 1.092916 -4.708529 0.778331
v 1.092916 5.291471 0.778331
v 0.920029 -4.708529 0.870741
v 0.920029 5.291471 0.870741
v 0.732436 -4.708529 0.927647
v 0.732436 5.291471 0.927647
v 0.537346 -4.708529 0.946862
v 0.537346 5.291471 0.946862
v 0.342255 -4.708529 0.927647
v 0.342255 5.291471 0.927647
v 0.154662 -4.708529 0.870741
v 0.154662 5.291471 0.870741
v -0.018225 -4.708529 0.778331
v -0.018225 5.291471 0.778331
v -0.169761 -4.708529 0.653968
v -0.169761 5.291471 0.653968
v -0.294124 -4.708529 0.502431
v -0.294124 5.291471 0.502431
v -0.386534 -4.708529 0.329544
v -0.386534 5.291471 0.329544
v -0.443439 -4.708529 0.141951
v -0.443439 5.291471 0.141951
v -0.462654 -4.708529 -0.053139
v -0.462654 5.291471 -0.053139
v -0.443439 -4.708529 -0.248230
v -0.443439 5.291471 -0.248230
v -0.386533 -4.708529 -0.435823
v -0.386533 5.291471 -0.435823
v -0.294123 -4.708529 -0.608710
v -0.294123 5.291471 -0.608710
v -0.169760 -4.708529 -0.760246
v -0.169760 5.291471 -0.760246
v -0.018223 -4.708529 -0.884609
v -0.018223 5.291471 -0.884609
v 0.154664 -4.708529 -0.977018
v 0.154664 5.291471 -0.977018
v 0.342257 -4.708529 -1.033924
v 0.342257 5.291471 -1.033924
vn 0.0000 0.0000 -1.0000
vn 0.1951 0.0000 -0.9808
vn 0.3827 0.0000 -0.9239
vn 0.5556 0.0000 -0.8314
vn 0.7071 0.0000 -0.7071
vn 0.8314 0.0000 -0.5556
vn 0.9239 0.0000 -0.3827
vn 0.9808 0.0000 -0.1951
vn 1.0000 0.0000 0.0000
vn 0.9808 0.0000 0.1951
vn 0.9239 0.0000 0.3827
vn 0.8314 0.0000 0.5556
vn 0.7071 0.0000 0.7071
vn 0.5556 0.0000 0.8314
vn 0.3827 0.0000 0.9239
vn 0.1951 0.0000 0.9808
vn 0.0000 0.0000 1.0000
vn -0.1951 0.0000 0.9808
vn -0.3827 0.0000 0.9239
vn -0.5556 0.0000 0.8314
vn -0.7071 0.0000 0.7071
vn -0.8314 0.0000 0.5556
vn -0.9239 0.0000 0.3827
vn -0.9808 0.0000 0.1951
vn -1.0000 0.0000 0.0000
vn -0.9808 0.0000 -0.1951
vn -0.9239 0.0000 -0.3827
vn -0.8314 0.0000 -0.5556
vn -0.7071 0.0000 -0.7071
vn -0.5556 0.0000 -0.8314
vn -0.3827 0.0000 -0.9239
vn -0.1951 0.0000 -0.9808
usemtl None
s 1
f 1//1 2//1 4//2 3//2
f 3//2 4//2 6//3 5//3
f 5//3 6//3 8//4 7//4
f 7//4 8//4 10//5 9//5
f 9//5 10//5 12//6 11//6
f 11//6 12//6 14//7 13//7
f 13//7 14//7 16//8 15//8
f 15//8 16//8 18//9 17//9
f 17//9 18//9 20//10 19//10
f 19//10 20//10 22//11 21//11
f 21//11 22//11 24//12 23//12
f 23//12 24//12 26//13 25//13
f 25//13 26//13 28//14 27//14
f 27//14 28//14 30//15 29//15
f 29//15 30//15 32//16 31//16
f 31//16 32//16 34//17 33//17
f 33//17 34//17 36//18 35//18
f 35//18 36//18 38//19 37//19
f 37//19 38//19 40//20 39//20
f 39//20 40//20 42//21 41//21
f 41//21 42//21 44//22 43//22
f 43//22 44//22 46//23 45//23
f 45//23 46//23 48//24 47//24
f 47//24 48//24 50//25 49//25
f 49//25 50//25 52//26 51//26
f 51//26 52//26 54//27 53//27
f 53//27 54//27 56//28 55//28
f 55//28 56//28 58//29 57//29
f 57//29 58//29 60//30 59//30
f 59//30 60//30 62//31 61//31
f 61//31 62//31 64//32 63//32
f 63//32 64//32 2//1 1//1
